<svg width="40" height="40" viewBox="0 0 40 40" fill="none" xmlns="http://www.w3.org/2000/svg">
<path d="M23.6667 4.7915C21.6223 4.7915 19.6616 5.60363 18.216 7.04922C16.7705 8.49482 15.9583 10.4555 15.9583 12.4998V16.7915H11.8333C11.6267 16.7915 11.4583 16.9582 11.4583 17.1665V22.8332C11.4583 23.0398 11.625 23.2082 11.8333 23.2082H15.9583V34.8332C15.9583 35.0398 16.125 35.2082 16.3333 35.2082H22C22.2067 35.2082 22.375 35.0415 22.375 34.8332V23.2082H26.5367C26.7083 23.2082 26.8583 23.0915 26.9 22.9248L28.3167 17.2582C28.3306 17.2029 28.3317 17.1451 28.32 17.0893C28.3083 17.0335 28.284 16.9811 28.2489 16.9361C28.2139 16.8911 28.1691 16.8547 28.1178 16.8297C28.0666 16.8046 28.0104 16.7915 27.9533 16.7915H22.375V12.4998C22.375 12.3302 22.4084 12.1622 22.4733 12.0055C22.5382 11.8488 22.6334 11.7064 22.7533 11.5865C22.8733 11.4665 23.0156 11.3714 23.1724 11.3065C23.3291 11.2416 23.497 11.2082 23.6667 11.2082H28C28.2067 11.2082 28.375 11.0415 28.375 10.8332V5.1665C28.375 4.95984 28.2083 4.7915 28 4.7915H23.6667Z" fill="white"/>
</svg>
